<svg width="27" height="27" viewBox="0 0 27 27" fill="none" xmlns="http://www.w3.org/2000/svg">
<path d="M7.41471 26.1211C6.78429 26.6123 6.14017 26.6259 5.48235 26.162C4.82452 25.6982 4.60525 25.0843 4.82452 24.3203L7.16802 16.7485L1.20649 12.5329C0.54867 12.0691 0.350226 11.4551 0.611163 10.6911C0.871003 9.92715 1.39836 9.54516 2.19323 9.54516H9.55264L11.9372 1.68692C12.0743 1.30492 12.287 1.01133 12.5753 0.806144C12.8626 0.602048 13.1707 0.5 13.4996 0.5C13.8285 0.5 14.1366 0.602048 14.4238 0.806144C14.7122 1.01133 14.9249 1.30492 15.0619 1.68692L17.4465 9.54516H24.8059C25.6008 9.54516 26.1287 9.92715 26.3896 10.6911C26.6495 11.4551 26.4505 12.0691 25.7927 12.5329L19.8311 16.7485L22.1746 24.3203C22.3939 25.0843 22.1746 25.6982 21.5168 26.162C20.859 26.6259 20.2149 26.6123 19.5844 26.1211L13.4996 21.4962L7.41471 26.1211Z" fill="#070707"/>
</svg>
